<svg width="29" height="28" viewBox="0 0 29 28" fill="none" xmlns="http://www.w3.org/2000/svg">
<rect x="0.916626" width="27.8436" height="27.8243" fill="white"/>
<path fill-rule="evenodd" clip-rule="evenodd" d="M25.6526 22.8512C25.6526 27.4665 19.3189 28 14.556 28L14.2152 27.9997C11.1807 27.9924 3.45667 27.8009 3.45667 22.8232C3.45667 18.302 9.53582 17.6978 14.2625 17.675L14.8969 17.6746C17.9312 17.682 25.6526 17.8734 25.6526 22.8512ZM14.556 19.7748C8.58528 19.7748 5.55855 20.7998 5.55855 22.8232C5.55855 24.8648 8.58528 25.8996 14.556 25.8996C20.5254 25.8996 23.5507 24.8746 23.5507 22.8512C23.5507 20.8096 20.5254 19.7748 14.556 19.7748ZM14.556 0.175781C18.6589 0.175781 21.9953 3.51126 21.9953 7.6113C21.9953 11.7113 18.6589 15.0454 14.556 15.0454H14.5112C10.4167 15.0328 7.09994 11.6959 7.11391 7.6071C7.11391 3.51126 10.4518 0.175781 14.556 0.175781ZM14.556 2.17539C11.5559 2.17539 9.11492 4.61329 9.11492 7.6113C9.10514 10.5995 11.5279 13.036 14.5154 13.0472L14.556 14.047V13.0472C17.5547 13.0472 19.9943 10.6079 19.9943 7.6113C19.9943 4.61329 17.5547 2.17539 14.556 2.17539Z" fill="black"/>
</svg>
