<svg width="103" height="80" viewBox="0 0 103 80" fill="none" xmlns="http://www.w3.org/2000/svg">
<path d="M70.3654 55.9502C75.5998 55.9233 83.1134 54.0968 93.3277 50.3661C95.3338 49.6326 97.11 49.3813 98.317 49.6508C99.0394 49.82 99.4593 50.2341 99.6765 50.9992C99.7842 51.3659 99.793 51.6521 99.7036 51.8022L99.7028 51.803C99.6836 51.837 99.6214 51.9413 99.3627 51.9991C98.1493 52.2543 95.9284 53.1072 93.4194 54.28C87.2957 57.1388 81.6982 59.4276 78.4466 60.4023C75.461 61.2994 71.2101 62.0644 68.2691 62.2375C70.1251 61.0243 71.404 59.2942 71.404 57.9047C71.4048 57.1507 71.1063 56.5721 70.3654 55.9501L70.3654 55.9502ZM66.1384 53.8012H69.2294C74.7104 53.8012 79.5354 52.8638 87.0353 50.3433C90.1862 49.2841 91.8203 48.7317 92.4174 48.4938C92.2202 48.1365 91.9233 47.8006 91.5569 47.5888C90.013 46.6973 87.5575 47.584 83.6474 48.4511C75.9112 50.1765 73.4756 50.3298 67.4572 50.4523C64.0788 50.5053 59.6867 50.3591 59.5181 50.3432C60.7347 51.0356 62.9387 52.2109 64.164 52.8235L66.1384 53.8012ZM101.787 54.2477C100.386 53.6336 98.7962 54.1047 94.5285 56.1138C83.9623 61.1075 78.1044 63.1086 71.3149 64.043C62.0883 65.3163 51.854 63.5735 43.2334 59.2612C40.1567 57.7097 34.365 54.3505 34.4441 52.7304C34.4521 52.5786 34.52 52.2048 34.9902 52.0222C35.3286 51.8791 35.7469 52.0174 37.1632 53.1572C37.9479 53.7966 39.1669 54.6802 39.8797 55.1276C41.9042 56.4238 47.2305 58.9594 49.54 59.7291C57.5931 62.3872 62.8211 62.7522 66.4813 60.9044C67.931 60.1812 69.0781 58.9909 69.2122 58.0741C69.2521 57.7896 69.1882 57.573 69.0134 57.4126C68.9024 57.313 68.0371 56.8356 66.7127 56.242C62.1409 54.2124 59.207 52.6261 55.8957 50.3862C52.1518 47.8562 37.7385 35.0015 34.1924 32.8406C28.459 29.347 24.0484 27.8186 17.5066 28.3283C7.19501 29.1305 0 35.8773 0 36.4873C0 37.4516 5.06432 49.2891 8.61206 54.2486C14.4763 62.4772 27.3473 80 53.8928 80C81.0322 80 97.7838 64.0178 102.335 58.3844C103.413 57.051 103.144 54.8443 101.787 54.2484L101.787 54.2477ZM69.9947 29.5768C68.9633 31.0161 68.4277 31.4895 67.7931 31.5291C67.3652 31.5164 66.9741 31.3259 66.6483 30.9782C66.4208 30.741 63.9461 27.9257 61.2168 24.784C56.439 19.3218 55.8396 18.5937 56.138 17.8216C56.3272 17.3348 56.8508 17.2668 57.0225 17.2423C57.7752 17.1656 57.7697 17.1585 64.5974 24.9857L67.726 28.5685L86.418 3.03764C86.735 2.61083 87.2674 1.84021 87.2738 1.4877C87.281 1.15575 87.0998 0.710769 86.7956 0.496576C86.3462 0.155133 85.5767 -0.152317 84.7616 0.657814C84.4008 1.01585 82.1936 3.79808 80.7477 5.62841C80.2671 5.1945 79.785 4.78983 79.381 4.49501C79.1751 4.28555 78.914 4.07374 78.5859 3.84215C76.2398 2.23058 73.3459 0.972204 70.6446 0.390486C69.2771 0.0956815 66.3139 -0.17464 64.0069 0.1423C57.809 0.999863 52.351 4.2554 49.0309 9.07364C45.6637 13.9605 44.5995 19.8796 46.0333 25.7348C46.8987 29.3176 48.6326 32.4223 51.3355 35.2289C54.7586 38.8141 59.2227 40.9931 64.2448 41.5313C64.8435 41.5937 65.4582 41.6324 66.0704 41.6443C71.8404 41.7621 77.2561 39.5853 81.3202 35.5181C85.8497 30.9797 88.0107 24.7122 87.2451 18.3203C86.9434 15.7232 85.7827 12.4692 84.3609 10.0751C83.3351 11.4828 72.5766 26.0249 69.9948 29.5769L69.9947 29.5768Z" fill="url(#paint0_linear_1_169)"/>
<defs>
<linearGradient id="paint0_linear_1_169" x1="1.81901e-08" y1="49.5238" x2="103.004" y2="49.3062" gradientUnits="userSpaceOnUse">
<stop stop-color="#77B71E"/>
<stop offset="1" stop-color="#C8E522"/>
</linearGradient>
</defs>
</svg>
