<svg width="80" height="100" viewBox="0 0 80 100" fill="none" xmlns="http://www.w3.org/2000/svg">
<path d="M45.572 66.8033C44.3428 68.851 43.884 72.4171 43.9909 72.4923C45.4697 73.5448 50.9322 72.8441 53.2188 71.1041C54.6053 70.0485 55.7424 69.1176 56.6321 67.3148C57.3707 65.8329 58.1713 63.5202 58.3976 61.8568C58.4062 61.8003 58.448 61.4957 58.3318 61.3577C58.0527 61.0252 55.0587 61.3267 55.0286 61.3298C53.3366 61.5112 51.9299 61.839 50.4674 62.3909C49.3227 62.821 46.8247 64.7161 45.5722 66.8032L45.572 66.8033ZM30.439 62.3918C28.9765 61.84 27.5713 61.5121 25.8779 61.3307C25.8476 61.3276 22.8521 61.0277 22.5747 61.3586C22.4592 61.4966 22.5003 61.8012 22.5088 61.8578C22.7351 63.521 23.5357 65.833 24.2744 67.3157C25.1641 69.1177 26.3012 70.0493 27.6877 71.105C29.974 72.8458 35.4367 73.5465 36.9155 72.4932C37.0209 72.418 36.5636 68.8519 35.3344 66.8042C34.0804 64.7163 31.5824 62.8213 30.4391 62.3919L30.439 62.3918ZM78.7528 54.6158C77.6886 47.9612 75.0272 41.8383 70.8418 36.4145C68.4158 33.2607 64.1811 29.5156 60.5406 27.3077C57.3961 25.3785 52.463 23.3309 49.3046 22.6418L49.086 22.596V8.4513C50.0052 8.35209 51.1337 7.87777 51.7073 7.32205C52.7683 6.2424 53.207 4.2512 52.7482 2.58174C52.4637 1.60285 51.2748 0.488277 50.2067 0.199188C49.9928 0.141058 49.4882 0 39.7705 0C30.6651 0 29.8816 0.0255777 29.2925 0.342582C27.6238 1.20677 26.8115 2.69954 26.9433 4.65491C27.0758 6.89639 28.4166 8.19699 30.8232 8.41942L31.0666 8.44189L30.9969 22.565L29.9405 22.8347C24.3011 24.2469 18.4503 27.2929 13.8868 31.1883C3.16788 40.3564 -1.80179 54.0774 0.58989 67.8909C1.65869 74.0557 4.31551 80.0222 8.27307 85.1468C9.62554 86.8744 12.9009 90.1746 14.5301 91.4504C20.2414 95.9526 26.8301 98.736 34.1133 99.7249C35.4232 99.9024 37.1786 100 39.0558 100C41.201 100 43.2761 99.8713 44.7471 99.6458C51.3001 98.6623 57.0045 96.4192 62.1851 92.7882C71.0703 86.5785 76.9538 77.1367 78.7519 66.2067C79.158 63.7722 79.158 57.2757 78.7526 54.6158H78.7528ZM49.7129 5.53015C48.586 5.73787 30.9969 5.76654 30.1436 5.59137C29.6754 5.35344 29.3538 4.41252 29.6483 3.64676C29.7591 3.34138 30.2637 2.80195 30.3327 2.75003C30.6582 2.69888 34.3234 2.6454 39.8931 2.6454C44.4115 2.6454 47.8576 2.68338 48.6628 2.7384C49.7013 2.82831 49.7013 2.82831 49.9796 3.10424C50.2105 3.32745 50.2462 3.36079 50.2927 3.90565C50.3555 4.67373 50.0423 5.36431 49.7129 5.53017V5.53015ZM33.6073 24.3213C33.7065 24.1477 33.8406 23.909 33.8406 15.6624V8.46985H46.4692V15.7685C46.4692 24.3707 46.4979 24.3886 46.9157 24.6499C47.0056 24.7398 47.2435 24.9801 48.5781 25.2924C55.1157 26.8859 60.6264 29.9194 65.4225 34.5643C73.5839 42.4552 77.5055 53.4523 76.1819 64.7351C75.7618 68.3105 74.4799 72.7274 72.9174 75.9874L72.1222 77.6452L71.1123 78.132C69.6901 78.8132 67.0742 79.6216 64.4476 80.1945C62.0085 80.7145 58.32 80.8354 55.2656 80.4874C50.7655 79.9744 44.5357 78.7529 39.7621 77.4485C32.2496 75.3854 27.6844 74.5816 23.4775 74.5816C20.681 74.5816 17.9653 74.9506 14.6729 75.7791C12.5026 76.3302 9.45597 77.7268 7.67719 79.0033C7.61751 79.0468 7.56015 79.0871 7.50822 79.1235C7.2757 78.6755 6.9308 77.9981 6.5084 77.1626C4.07862 72.2713 2.92762 67.655 2.77722 62.1925C2.56718 54.7132 4.63426 47.4323 8.75365 41.1328C11.4725 36.9731 15.4237 33.0272 19.5928 30.3083C23.0906 28.046 27.2651 26.2649 31.3472 25.2915C33.0299 24.8791 33.4167 24.6505 33.6074 24.3203L33.6073 24.3213ZM49.9935 53.9009C49.8927 55.9408 49.3913 57.5273 49.2533 58.0676C48.4744 61.1717 46.443 63.7952 44.3442 65.1043C43.89 65.388 43.1645 65.4864 42.4615 65.4407L42.4623 48.843L41.7508 48.7461C41.4082 48.6895 41.0417 48.8375 40.844 49.1158C40.7929 49.2057 40.6727 49.4157 40.6177 60.9361C40.6092 62.6482 40.6022 64.0835 40.5975 65.3306C40.5968 65.3306 40.5944 65.3306 40.5929 65.3313V73.4191L39.8954 73.5191C39.7977 73.5338 39.7194 73.5447 39.6442 73.5447C39.4668 73.5447 39.321 73.4927 39.1963 73.3858C38.7552 73.0044 38.701 72.4511 38.7304 65.0942C36.2286 64.0084 33.2717 60.3051 32.4758 57.9242C31.738 55.716 31.7558 53.4444 31.7892 51.9384C31.8612 48.643 32.3348 46.7898 33.8616 43.3098C35.1094 40.4374 37.8586 36.1877 39.9916 33.8379C40.0629 33.7558 40.4535 33.3272 40.7938 33.3272C41.613 33.3272 44.8202 38.0286 44.8519 38.076C46.6477 40.7468 47.8839 43.1806 48.8629 45.9683C49.6317 48.1469 49.8526 49.404 49.9394 52.0796C49.941 52.0796 50.0169 53.4468 49.9937 53.901L49.9935 53.9009Z" fill="url(#paint0_linear_1_164)"/>
<defs>
<linearGradient id="paint0_linear_1_164" x1="1.39616e-08" y1="61.9047" x2="79.0595" y2="61.8022" gradientUnits="userSpaceOnUse">
<stop stop-color="#77B71E"/>
<stop offset="1" stop-color="#C8E522"/>
</linearGradient>
</defs>
</svg>
