<svg width="104" height="100" viewBox="0 0 104 100" fill="none" xmlns="http://www.w3.org/2000/svg">
<path d="M96.259 80.0939C90.9337 87.7699 75.4818 100 50.9297 100C32.8809 100 17.1618 86.5849 9.0807 75.7094C5.62709 71.0589 0 60.9936 0 59.3895C0 57.9367 6.60942 52.1365 16.3489 52.1365C28.2967 52.1365 37.8325 60.4754 41.0802 63.2628C48.9873 70.0694 49.2052 70.2446 52.7457 72.6605C55.8741 74.7963 58.6423 76.3103 62.9621 78.2458C64.205 78.8097 65.0232 79.2642 65.1278 79.3583C65.2879 79.5071 65.3466 79.7074 65.3088 79.9705C65.1857 80.8393 64.1061 81.9672 62.7442 82.6533C59.2914 84.4094 54.3627 84.0635 46.7623 81.5311C44.5838 80.799 39.5591 78.3816 37.647 77.1452C36.972 76.7172 35.8233 75.8758 35.0849 75.2668C33.7382 74.1743 33.3392 74.0456 33.0102 74.1816C32.5557 74.3602 32.489 74.727 32.4817 74.8758C32.4053 76.4316 37.8835 79.6446 40.7924 81.1257C48.9392 85.242 58.6078 86.9033 67.3216 85.6877C73.7362 84.7947 79.2685 82.8865 89.2459 78.1241C93.2706 76.2087 94.7885 75.7188 96.0845 76.3447C97.1432 76.8587 97.4103 78.4346 96.2591 80.0942L96.259 80.0939ZM67.4254 79.8147C67.4254 81.1292 66.2453 82.7615 64.5229 83.9207C67.2918 83.7478 71.2547 83.0238 74.0493 82.1759C77.1207 81.2467 82.4034 79.0635 88.1852 76.3379C90.5576 75.2173 92.6563 74.404 93.8003 74.1603C94.0344 74.108 94.0883 74.0139 94.1085 73.9841C94.1559 73.9037 94.2146 73.6993 94.0811 73.2344C93.8784 72.516 93.4858 72.125 92.8117 71.965C91.6766 71.7011 90.0066 71.944 88.1144 72.6463C78.5044 76.1899 71.4244 77.934 66.4825 77.9717C67.1526 78.5557 67.4261 79.1036 67.4261 79.8147L67.4254 79.8147ZM62.4362 75.8794H65.3483C70.5218 75.8794 75.0773 74.9857 82.1534 72.5819C85.08 71.5876 86.6213 71.0631 87.2037 70.8314C87.0098 70.6343 86.2053 69.7092 84.1098 69.8202C83.8999 69.8307 81.9508 70.0455 78.9863 70.7091C71.6746 72.3559 69.4214 72.594 63.7404 72.7098C60.5862 72.7661 56.1923 72.4677 56.0619 72.4548C57.2034 73.1096 59.4574 74.3839 60.5757 74.9493L62.4362 75.8794ZM103.387 55.0424C102.698 51.6832 101.049 47.3061 98.8621 43.0337L98.739 42.7924C97.5396 40.4498 97.5396 40.4498 95.7103 37.635L95.4995 37.31C93.449 34.1871 93.2832 33.6208 93.7249 31.2597C94.432 27.573 94.3821 25.4403 93.5278 22.8073C92.7354 20.377 91.7492 18.7199 89.8893 16.6895C88.4405 15.1232 83.7803 11.9255 82.6316 12.3728C82.0459 12.6069 82.0708 13.0783 82.1561 14.647C82.2913 16.6308 82.815 18.8654 83.7127 21.2902C84.9291 24.5185 86.4874 27.1249 88.619 29.4932C89.4774 30.44 90.0952 31.2123 90.5296 31.81C87.7719 29.3523 81.9341 25.2667 78.3767 23.323C77.0815 22.6199 77.0132 22.5588 76.5522 21.6972C76.0446 20.7745 75.8708 20.0594 75.2249 16.2334C74.7752 13.5161 73.3384 10.2733 71.563 7.97011C70.5888 6.70953 68.7466 4.92529 67.3679 3.90919C65.1089 2.26569 61.2694 0.763048 58.0355 0.255407C55.9801 -0.0856703 52.0519 -0.0848679 50.2565 0.256211C47.326 0.763811 46.8497 1.30764 46.7741 1.81202C46.6631 2.42904 47.1787 2.79425 48.354 3.56171C49.1553 4.09023 50.4151 5.10143 51.1624 5.81736C53.2484 7.80678 56.6254 10.8862 57.6141 11.7011C58.9889 12.8385 60.1964 13.5441 64.4118 15.6775C68.1798 17.5761 70.7018 19.106 72.4442 20.5589C69.7003 19.4102 63.9251 17.6146 61.161 17.0275C57.076 16.1603 53.8598 15.8377 49.2029 15.9576C46.307 16.0324 42.5661 16.1595 37.6631 17.0058C34.6061 17.5343 30.324 18.609 28.1046 19.317C28.0942 19.3202 26.153 19.9694 25.6889 19.8117C25.4975 19.7369 25.0913 19.4972 25.1765 18.7845C25.2698 18.058 25.7879 17.8899 27.0388 17.4837C30.4673 16.3631 37.7147 14.6326 44.1487 14.0469C42.136 12.475 39.1425 11.2676 36.1638 10.9288C33.7407 10.6328 29.2914 10.6738 27.1844 11.0133C23.8097 11.537 20.1946 12.6648 17.5116 14.0299C12.6632 16.4884 6.73771 22.6054 4.01848 27.9582C3.70475 28.6009 3.38538 29.4537 3.65084 29.8784C3.7522 30.0401 3.92033 30.1382 4.07157 30.1382H4.0764C4.15604 30.1487 4.97578 30.304 6.13499 30.5461C14.6436 32.3207 22.2312 32.0842 30.7304 29.7754C35.3906 28.5221 39.7145 26.1909 42.5921 23.3833C44.2364 21.7897 46.1035 19.3143 46.5105 18.1889L46.5805 17.9894L51.3276 18.0666C55.3869 18.1309 56.6765 18.2106 58.2249 18.4897C62.7789 19.3304 69.0577 21.2129 72.3102 22.7082C70.1832 22.8892 67.1987 23.6526 64.1924 24.474C62.9125 24.8231 59.8339 25.8005 57.8349 26.5801C55.1175 27.6396 51.4275 29.3055 49.29 30.4262C47.3674 31.0771 46.9314 29.3064 48.4663 28.5197C52.2778 26.5464 59.3498 23.4958 65.4281 21.9844C61.4685 21.1357 55.8366 21.4655 54.5728 21.7125C47.6995 23.0978 40.7097 26.9349 36.2306 33.6271C34.9941 35.4766 34.5332 37.2898 34.6555 37.5979C34.8284 38.0315 36.3609 38.9035 39.2666 39.4907C41.7081 39.9831 47.6056 40.5848 50.3495 40.1045C55.6211 39.1923 59.4236 38.0958 63.2714 33.8427C65.5038 31.3538 66.5382 30.0287 68.3089 27.4007C69.341 25.8892 69.9443 25.1949 70.0159 25.1321C70.678 24.8827 73.5426 24.635 75.0429 24.6961C76.9398 24.7894 77.5263 25.0686 82.0166 28.008C85.3945 30.2315 86.4629 31.0304 89.1625 33.3536L89.9493 34.0221C89.9493 34.0221 84.6012 34.7767 82.3151 35.446C81.2227 35.767 78.5752 36.5738 76.8602 37.2624C75.8434 37.6703 74.6665 38.1875 73.5112 38.7233C71.8701 39.1569 71.7245 37.3131 72.8379 36.7838C76.8409 34.9593 81.99 33.0382 86.0639 32.5064C86.0905 32.5032 86.1122 32.5008 86.1379 32.4976C82.4463 31.3408 77.0597 31.0286 73.4236 32.2458C66.0372 34.7195 62.5877 40.2035 61.4969 41.7962C60.287 43.562 58.9411 46.1741 58.9411 46.7645C58.9411 47.7677 65.6173 49.5696 72.439 48.6574C76.8546 48.0669 80.7298 45.8908 83.3151 43.6224C87.3229 40.1062 89.17 36.1241 89.17 36.1241H89.8481C91.9726 36.1241 92.5882 36.5754 94.5582 39.5689C98.1807 45.0592 101.871 54.3514 101.871 57.9788C101.871 58.7028 102.088 59.2692 102.467 59.5314C102.608 59.6296 102.771 59.6811 102.938 59.6811C103.036 59.6811 103.134 59.6626 103.231 59.6272C103.701 59.4478 104.146 58.7664 103.388 55.0425L103.387 55.0424ZM18.7955 22.6481C17.8728 23.0198 16.2511 23.6432 15.7739 23.6432L15.6042 23.6167C15.2478 23.4807 15.0347 23.0882 15.0588 22.6168C15.0821 22.1486 15.3307 21.7833 15.6943 21.6836C15.8512 21.6418 17.0353 21.1438 17.8188 20.814L17.9941 20.74C20.0391 19.847 20.8557 19.6676 21.3431 19.9894C21.5113 20.1004 21.7124 20.3225 21.7124 20.7553C21.7124 21.4809 21.3238 21.6369 18.7955 22.6481H18.7955Z" fill="url(#paint0_linear_1_154)"/>
<defs>
<linearGradient id="paint0_linear_1_154" x1="1.83307e-08" y1="61.9047" x2="103.8" y2="61.728" gradientUnits="userSpaceOnUse">
<stop stop-color="#77B71E"/>
<stop offset="1" stop-color="#C8E522"/>
</linearGradient>
</defs>
</svg>
