<svg width="61" height="100" viewBox="0 0 61 100" fill="none" xmlns="http://www.w3.org/2000/svg">
<path d="M43.1497 0.00137337C40.4493 -0.0420449 37.1131 0.943774 34.6875 2.99372C31.9194 5.33336 30.268 8.93139 31.5912 14.1267C31.7379 13.9324 31.8845 13.7374 32.0326 13.5445C34.0796 10.871 36.1971 8.24529 36.9274 5.50641H36.9267C37.042 5.04375 37.4456 4.71064 37.9218 4.68431C38.272 4.66509 38.6107 4.8167 38.83 5.09074C39.0492 5.36478 39.1232 5.72779 39.0279 6.06518C38.1253 9.45183 35.77 12.2392 33.7571 14.8678C33.5236 15.1732 33.2966 15.475 33.0752 15.7754C35.674 15.2408 37.5224 14.5006 38.6904 13.6123C40.1374 12.5119 40.8206 11.2327 41.2955 9.68261C42.1197 6.99001 42.2066 3.46378 44.1725 0.162579C43.8223 0.116313 43.5276 0.00812259 43.1482 0.00242836L43.1497 0.00137337ZM28.922 10.8403C28.7348 10.9129 28.5497 10.9905 28.3668 11.0737V11.0759C28.0365 11.2261 27.7141 11.3905 27.4002 11.5705C24.8883 13.0133 22.9344 15.3971 22.1216 18.4C21.3087 21.4029 21.7977 24.431 23.2426 26.92H23.2419C23.3914 27.1691 23.4348 27.4688 23.3622 27.7507C23.2896 28.0325 23.1067 28.2738 22.8547 28.4197C22.6027 28.5657 22.3031 28.6048 22.0219 28.5279C21.7415 28.4511 21.503 28.2653 21.3607 28.0112C20.0724 25.7911 19.4217 23.1981 19.5798 20.5374C17.5534 19.5338 15.1689 19.2306 12.8036 19.8598C10.2312 20.5445 8.19626 22.1924 6.96631 24.3084C5.73635 26.4252 5.31853 28.9968 6.00612 31.5473C6.68088 34.0486 8.288 36.0393 10.3614 37.2692C12.5907 37.9511 15.0655 38.5269 17.7355 38.9647C21.5963 39.5982 25.8534 39.9505 30.3233 39.9505C34.794 39.9505 39.0491 39.5982 42.9097 38.9647C44.5745 38.6914 46.1604 38.3632 47.663 37.991C48.206 37.8088 48.7392 37.5724 49.2559 37.277C51.3764 36.0642 52.7878 34.126 53.3722 31.9629C53.9565 29.7998 53.711 27.4254 52.4888 25.3277C51.2667 23.2301 49.3108 21.8286 47.122 21.247C44.9333 20.6654 42.5282 20.9103 40.4078 22.1232C39.3479 22.7296 38.4654 23.5162 37.7749 24.4222L37.7756 24.4229C37.6048 24.6635 37.3436 24.8244 37.0525 24.8685C36.7606 24.9126 36.4638 24.8372 36.2297 24.6585C35.9948 24.4792 35.8432 24.213 35.8083 23.9204C35.7741 23.6279 35.8602 23.3332 36.0467 23.1054C36.9108 21.9723 38.0141 20.9879 39.3281 20.2363C40.642 19.4846 42.0505 19.0319 43.4698 18.8568C43.6755 18.8298 43.8812 18.8134 44.0869 18.7999C43.835 17.6959 43.4193 16.6397 42.8549 15.6674C42.6741 15.3564 42.479 15.0532 42.2691 14.7606C42.0591 14.4681 41.8356 14.1848 41.5979 13.9129C41.5786 13.8972 41.563 13.8737 41.5459 13.8567C41.116 14.3848 40.6092 14.8852 40.0063 15.3436C38.1536 16.7529 35.4857 17.7636 31.5426 18.3202L31.5433 18.3195C31.4899 18.3259 31.4358 18.3281 31.3824 18.3274C30.6173 19.679 30.1347 20.9908 30.1404 22.2884L30.1397 22.2876C30.1511 22.5823 30.0422 22.8692 29.8379 23.082C29.6336 23.2948 29.3517 23.4151 29.0571 23.4165C28.7624 23.4172 28.4798 23.2984 28.2741 23.0877C28.0684 22.8763 27.9574 22.5901 27.9659 22.2955C27.9581 20.1701 28.7937 18.2676 29.9347 16.4688C29.2294 14.4502 28.9162 12.5675 28.9212 10.8372L28.922 10.8403ZM31.7044 26.4817V26.4809C32.2126 26.4639 32.6653 26.8012 32.7934 27.2931C32.9223 27.7856 32.6924 28.301 32.2404 28.5344C30.693 29.3594 29.6666 30.6263 29.2218 31.9779C28.777 33.3296 28.8958 34.7496 29.6845 36.0136L29.6852 36.0144C29.8446 36.2585 29.8994 36.5574 29.8361 36.8429C29.7734 37.1283 29.5976 37.3767 29.3499 37.5312C29.1022 37.6856 28.8018 37.734 28.5178 37.6657C28.2338 37.5966 27.9897 37.4166 27.8402 37.1653C26.7063 35.3481 26.5277 33.2099 27.1562 31.2989C27.7847 29.3878 29.2032 27.6894 31.2161 26.6161C31.3656 26.5335 31.5329 26.4873 31.7044 26.4809L31.7044 26.4817ZM12.5335 27.286C12.5698 27.2838 12.6054 27.2838 12.6417 27.286C14.3977 27.3095 16.0034 27.9977 17.18 29.1096C18.3565 30.2214 19.1138 31.7723 19.1373 33.4791C19.1387 34.0749 18.6611 34.5617 18.0647 34.5703C17.4689 34.5781 16.9771 34.1062 16.9621 33.5104C16.9507 32.4257 16.4724 31.4348 15.6873 30.6932C14.9015 29.9508 13.816 29.4768 12.6146 29.4618V29.4611C12.0174 29.4789 11.5178 29.012 11.495 28.4148C11.4729 27.8176 11.9363 27.3144 12.5335 27.2881L12.5335 27.286ZM39.6581 27.6953C41.4141 27.7187 43.0198 28.4092 44.1964 29.521C45.3729 30.6329 46.1302 32.1823 46.1537 33.8893H46.153C46.1587 34.1783 46.0484 34.4573 45.8469 34.6651C45.6455 34.873 45.3701 34.9919 45.0811 34.9961C44.7921 35.0004 44.5131 34.8886 44.306 34.6872C44.0988 34.4851 43.9807 34.2089 43.9778 33.9199C43.9664 32.8352 43.4888 31.843 42.703 31.1005C41.9172 30.3581 40.8311 29.8855 39.6303 29.8705V29.8713C39.3413 29.8677 39.0659 29.7502 38.8637 29.5438C38.6616 29.3367 38.5498 29.0584 38.5534 28.7694C38.557 28.4804 38.6758 28.205 38.883 28.0035C39.0894 27.8021 39.3684 27.6911 39.6574 27.6953L39.6581 27.6953ZM55.7692 28.3949C55.9379 29.79 55.8326 31.1958 55.4717 32.531C55.1372 33.7695 54.5799 34.9503 53.8232 36.0117C56.1443 35.0508 58.0484 33.9554 59.4171 32.8051C59.2719 31.768 58.6405 30.7133 57.4384 29.6391C57.0932 29.3302 56.7024 29.0234 56.2696 28.7223C56.1102 28.6113 55.9394 28.5031 55.7693 28.3942L55.7692 28.3949ZM3.50983 29.3815C3.40591 29.4676 3.30484 29.5537 3.20876 29.6398C2.00655 30.7139 1.37585 31.7688 1.23135 32.8066C2.29403 33.6991 3.67851 34.5597 5.33047 35.349C4.70837 34.3724 4.22295 33.2878 3.90691 32.1147C3.66063 31.2029 3.53394 30.2869 3.50974 29.3807L3.50983 29.3815ZM2.56246 36.3598H2.56317H2.56246ZM2.56317 36.3598C3.24434 38.898 3.22867 41.5316 2.58239 43.9979L2.58167 43.9972C2.57527 44.0249 2.56744 44.0527 2.5589 44.0804C2.5589 44.084 2.55676 44.084 2.55676 44.0883C2.55534 44.0968 2.55391 44.1061 2.55249 44.1153C1.73181 46.8983 1.09264 49.8223 0.659819 52.8567C0.227058 55.8903 0 59.0342 0 62.255C0 65.4759 0.227058 68.6191 0.659819 71.6534C1.09258 74.6869 1.73176 77.6109 2.55249 80.3948C2.95821 81.7721 3.40947 83.1138 3.90202 84.4177V84.417C3.92195 84.464 3.93832 84.5124 3.95113 84.5622C5.01809 88.5198 4.38176 92.5449 2.48914 95.8476C2.33896 96.1971 2.25496 96.5764 2.25496 96.9822C2.25496 98.6456 3.64293 100 5.46942 100H55.1851C57.0109 100 58.3996 98.6455 58.3996 96.9822C58.3996 96.5764 58.3156 96.1956 58.1654 95.8454C56.2798 92.5543 55.6428 88.5461 56.6948 84.6029H56.6934C56.7005 84.5773 56.7084 84.5524 56.7169 84.5275C56.7212 84.509 56.7269 84.4905 56.7319 84.4727C56.7333 84.4684 56.7347 84.4648 56.7361 84.4606C57.2351 83.1438 57.692 81.7871 58.1027 80.3955C58.9234 77.6125 59.5605 74.6878 59.994 71.6541C60.4267 68.6206 60.6552 65.4766 60.6552 62.2558C60.6552 59.0349 60.4267 55.891 59.994 52.8575C59.5612 49.8267 58.9249 46.9063 58.1057 44.1253L58.1049 44.1261C58.1021 44.114 58.1 44.1026 58.0971 44.0912C57.4245 41.5985 57.4017 38.9301 58.0936 36.3605C56.8515 37.0758 55.4514 37.7307 53.9126 38.3279C52.1965 38.9934 50.3018 39.5813 48.2689 40.0867C48.2319 40.0988 48.1934 40.1087 48.155 40.1173C46.604 40.4995 44.9755 40.8362 43.2707 41.1152C39.2855 41.7686 34.9165 42.1288 30.3327 42.1288C25.7481 42.1288 21.3784 41.7693 17.3932 41.1152C14.6465 40.6646 12.0876 40.0717 9.75926 39.3607V39.3614C9.67171 39.3457 9.5863 39.3194 9.50587 39.2838C8.54782 38.9856 7.62541 38.6688 6.75278 38.33C5.21391 37.7335 3.81382 37.078 2.57184 36.3634L2.56317 36.3598ZM30.3656 50.2971C33.0291 50.2971 35.573 50.838 37.8842 51.816C40.1954 52.794 42.2765 54.2076 44.0232 55.955C45.056 56.9885 45.9713 58.1387 46.7501 59.3843L47.123 57.7273V57.7259C47.2291 57.2198 47.6768 56.8589 48.1936 56.8618C48.5252 56.8639 48.8384 57.0169 49.0434 57.2782C49.2477 57.5394 49.3224 57.8796 49.2449 58.2027L48.2726 62.524H48.2733C48.2733 63.0671 47.8733 63.5276 47.3352 63.6023C47.1245 63.6351 46.9088 63.6059 46.7152 63.5176L42.382 62.166V62.1667C41.8602 62.0122 41.5328 61.4969 41.6154 60.9588C41.6972 60.4214 42.1642 60.0271 42.708 60.0363C42.8176 60.0385 42.9258 60.057 43.029 60.0911L45.0148 60.7104C44.3008 59.5381 43.4503 58.4576 42.4851 57.4917C40.9334 55.94 39.0856 54.6845 37.0364 53.8168C34.9873 52.9499 32.7352 52.4694 30.3657 52.4694C27.9962 52.4694 25.7449 52.9491 23.695 53.8168C21.6451 54.6837 19.7987 55.9392 18.2477 57.4917C16.696 59.0434 15.4419 60.8904 14.5749 62.9411V62.9403C14.4639 63.208 14.2511 63.4201 13.9827 63.5304C13.7151 63.64 13.414 63.6386 13.1471 63.5261C12.8802 63.413 12.6695 63.1987 12.5613 62.9297C12.4531 62.6613 12.4567 62.3603 12.5713 62.0941C13.5486 59.7821 14.9629 57.701 16.7096 55.9536C18.4563 54.2062 20.5361 52.7925 22.8473 51.8146C25.1585 50.8366 27.7017 50.2956 30.3652 50.2956L30.3656 50.2971ZM35.1666 60.0029C35.3517 59.9994 35.5353 60.0008 35.7175 60.0065C36.6905 60.0371 37.6215 60.198 38.4706 60.4898V60.4884C38.8073 60.6044 39.0657 60.8777 39.1625 61.2208C39.26 61.5632 39.1831 61.9311 38.9575 62.2066C36.8221 64.8088 36.9923 67.9734 36.01 71.1942C35.5188 72.805 34.6626 74.4192 33.0154 75.6776C31.3684 76.936 29.0082 77.8294 25.5417 78.3205L25.5424 78.3198C25.5146 78.324 25.4869 78.3262 25.4591 78.3276C25.1281 78.9255 24.8491 79.5362 24.652 80.1718H24.6527C24.5722 80.453 24.3815 80.69 24.1245 80.8295C23.8669 80.969 23.5644 80.9982 23.2846 80.912C23.0056 80.8252 22.7729 80.6295 22.639 80.369C22.5052 80.1092 22.4825 79.806 22.5757 79.5283C22.9117 78.4415 23.4028 77.4606 23.9651 76.5495C21.9044 70.557 23.7452 65.8813 26.9553 63.1559C29.3497 61.1224 32.3911 60.0526 35.1662 60.0019L35.1666 60.0029ZM35.6777 62.2187C33.3522 62.1838 30.4581 63.0365 28.3626 64.8153C26.0252 66.8005 24.6152 69.8198 25.6323 74.1866C26.0459 73.6485 26.4573 73.1253 26.8431 72.6079V72.6064C26.8438 72.6057 26.8452 72.6043 26.8459 72.6029C28.2424 70.7543 29.5571 68.9187 30.1052 66.8895C30.2219 66.4276 30.6262 66.0952 31.1017 66.0703C31.4526 66.0525 31.79 66.2048 32.0085 66.4795C32.227 66.755 32.2996 67.118 32.2028 67.4554C31.5174 69.9957 29.9927 72.045 28.5813 73.9127C28.1165 74.5356 27.6474 75.1413 27.1954 75.7427C29.2581 75.2829 30.7486 74.6715 31.6945 73.9498C32.9359 73.001 33.5181 71.9091 33.9289 70.5609C34.6293 68.2646 34.714 65.2147 36.3596 62.327C36.1212 62.2999 35.9304 62.2223 35.677 62.2188L35.6777 62.2187ZM12.1227 68.51V68.5093C12.2408 68.5072 12.359 68.5257 12.4715 68.562C12.4814 68.5656 12.4921 68.5691 12.5021 68.5734C12.522 68.5805 12.5419 68.5883 12.5619 68.5969C12.5896 68.6083 12.6167 68.6211 12.643 68.6353C12.6444 68.636 12.6451 68.6367 12.6458 68.6375C12.7697 68.7015 12.88 68.7891 12.9711 68.8951L16.3977 71.812L16.397 71.8113C16.8525 72.2014 16.9059 72.8861 16.518 73.3423C16.1301 73.7986 15.4453 73.8548 14.9877 73.4683L13.4104 72.1259C13.6239 73.5808 14.0189 74.976 14.5734 76.2877C15.4404 78.3376 16.6953 80.1862 18.2469 81.7385C19.7986 83.2902 21.6443 84.5443 23.6942 85.412C24.7192 85.8455 25.7953 86.1821 26.9107 86.4106L26.91 86.4099C27.1947 86.4654 27.4452 86.6327 27.6061 86.874C27.767 87.1153 27.8253 87.4114 27.767 87.6954C27.7086 87.9801 27.5392 88.2292 27.2958 88.3872C27.0531 88.546 26.757 88.6015 26.473 88.5403C25.2152 88.2833 24.0023 87.9039 22.8465 87.4149C20.5353 86.4369 18.4555 85.0219 16.7088 83.2745C14.9621 81.527 13.5477 79.4472 12.5697 77.1354C11.9711 75.7197 11.5369 74.2171 11.29 72.6533L10.2935 74.0363V74.037C10.1269 74.2754 9.87137 74.4377 9.58382 74.4868C9.29698 74.5352 9.0023 74.4669 8.76598 74.2968C8.52967 74.1267 8.37165 73.8683 8.32681 73.5807C8.28267 73.2925 8.35528 72.9992 8.52895 72.765L11.1468 69.132V69.1327C11.2614 68.8957 11.4572 68.7078 11.6992 68.6046H11.7013C11.7227 68.5953 11.744 68.5861 11.7654 68.5783C11.7839 68.5726 11.8024 68.5669 11.8209 68.5626C11.8252 68.5612 11.8287 68.5597 11.833 68.559C11.9262 68.5313 12.023 68.5156 12.1205 68.5142L12.1227 68.51ZM48.5749 68.5122V68.5115C48.8689 68.5072 49.1522 68.6218 49.36 68.8296C49.5678 69.0375 49.6824 69.32 49.6782 69.614C49.6782 72.2782 49.1386 74.8214 48.1606 77.1341C47.1834 79.446 45.7691 81.5258 44.0224 83.2731C42.2757 85.0205 40.1944 86.4354 37.8833 87.4136C37.5901 87.5374 37.2933 87.6548 36.9929 87.7645L38.6869 88.6307V88.63C38.9531 88.756 39.1574 88.9837 39.2521 89.2628C39.3475 89.5411 39.3254 89.8464 39.1916 90.1084C39.0578 90.3703 38.8236 90.5667 38.5417 90.6536C38.2606 90.7397 37.956 90.7084 37.6983 90.566L33.6653 88.5048H33.666C33.3763 88.4052 33.1422 88.1874 33.0211 87.9055C32.9008 87.6236 32.9044 87.304 33.0318 87.025C33.0404 87.0065 33.0496 86.9887 33.0589 86.9702C33.0596 86.9688 33.061 86.9681 33.0617 86.9667C33.1016 86.8898 33.1507 86.8186 33.2076 86.7538L35.5664 82.9337C35.77 82.592 36.1437 82.3892 36.5408 82.4034C36.9302 82.4184 37.2818 82.6404 37.4626 82.9856C37.6434 83.3308 37.6256 83.7465 37.4163 84.0754L36.449 85.6434C36.6462 85.568 36.8433 85.4932 37.0377 85.4107C39.0869 84.5437 40.9354 83.2895 42.4863 81.7379C44.0379 80.1863 45.2928 78.3371 46.1597 76.2872C47.0267 74.2372 47.5064 71.986 47.5064 69.6157L47.5057 69.615C47.4972 69.0149 47.9762 68.521 48.5762 68.5117L48.5749 68.5122Z" fill="url(#paint0_linear_1_159)"/>
<defs>
<linearGradient id="paint0_linear_1_159" x1="1.07119e-08" y1="61.9047" x2="60.6575" y2="61.8444" gradientUnits="userSpaceOnUse">
<stop stop-color="#77B71E"/>
<stop offset="1" stop-color="#C8E522"/>
</linearGradient>
</defs>
</svg>
