<svg width="29" height="28" viewBox="0 0 29 28" fill="none" xmlns="http://www.w3.org/2000/svg">
<rect x="0.879761" width="28.0195" height="28" fill="white"/>
<path fill-rule="evenodd" clip-rule="evenodd" d="M13.4479 0C20.3779 0 26.0148 5.50874 26.0148 12.2812C26.0148 15.4764 24.7601 18.3906 22.7068 20.5777L26.747 24.5178C27.1251 24.8873 27.1264 25.4851 26.7483 25.8546C26.5599 26.0413 26.3108 26.1333 26.0631 26.1333C25.8166 26.1333 25.5688 26.0413 25.3791 25.8571L21.2901 21.8723C19.1391 23.5557 16.4118 24.5636 13.4479 24.5636C6.51795 24.5636 0.879761 19.0536 0.879761 12.2812C0.879761 5.50874 6.51795 0 13.4479 0ZM13.4479 1.89174C7.58519 1.89174 2.81551 6.55171 2.81551 12.2812C2.81551 18.0106 7.58519 22.6718 13.4479 22.6718C19.3094 22.6718 24.079 18.0106 24.079 12.2812C24.079 6.55171 19.3094 1.89174 13.4479 1.89174Z" fill="black"/>
</svg>
