<svg width="29" height="28" viewBox="0 0 29 28" fill="none" xmlns="http://www.w3.org/2000/svg">
<rect x="0.777527" width="28.0195" height="28" fill="white"/>
<path fill-rule="evenodd" clip-rule="evenodd" d="M14.0029 0C17.5373 0 20.4571 2.6912 20.817 6.13315L20.9175 6.13433C22.8782 6.13433 25.262 7.43557 26.0666 11.0853L27.1334 19.3372C27.5161 22.0005 27.0374 24.1368 25.7083 25.6691C24.3858 27.1933 22.2927 28 19.6546 28H8.36664C5.46893 28 3.45014 27.2906 2.19397 25.8326C0.932392 24.3706 0.510514 22.1775 0.940505 19.3156L1.98979 11.1731C2.6794 7.43962 5.2012 6.13433 7.15374 6.13433C7.3223 4.58106 8.02318 3.10338 9.13508 1.99577C10.4129 0.726964 12.1748 0 13.9745 0H14.0029ZM20.9175 8.16118H7.15374C6.55743 8.16118 4.56433 8.4017 3.99236 11.4879L2.94848 19.5953C2.60909 21.8695 2.87141 23.5153 3.73004 24.5111C4.57785 25.4948 6.09499 25.9731 8.36664 25.9731H19.6546C21.0717 25.9731 23.0066 25.6907 24.1749 24.3422C25.1025 23.2734 25.4216 21.6816 25.1241 19.6102L24.0708 11.4325C23.6219 9.41783 22.4374 8.16118 20.9175 8.16118ZM17.9465 11.9232C18.5063 11.9232 18.9917 12.3772 18.9917 12.9366C18.9917 13.496 18.5685 13.95 18.0087 13.95H17.9465C17.3867 13.95 16.9324 13.496 16.9324 12.9366C16.9324 12.3772 17.3867 11.9232 17.9465 11.9232ZM10.0632 11.9232C10.623 11.9232 11.1084 12.3772 11.1084 12.9366C11.1084 13.496 10.6839 13.95 10.1241 13.95H10.0632C9.50341 13.95 9.04908 13.496 9.04908 12.9366C9.04908 12.3772 9.50341 11.9232 10.0632 11.9232ZM13.9988 2.02685H13.9786C12.7062 2.02685 11.4662 2.53897 10.567 3.43213C9.83456 4.16081 9.35551 5.11874 9.20054 6.1337L18.773 6.13408C18.4255 3.81234 16.4164 2.02685 13.9988 2.02685Z" fill="black"/>
</svg>
